<?xml version="1.0" encoding="UTF-8"?>
<!DOCTYPE svg PUBLIC "-//W3C//DTD SVG 1.1//EN" "http://www.w3.org/Graphics/SVG/1.1/DTD/svg11.dtd">
<!-- Creator: CorelDRAW (Evaluation Version) -->
<svg xmlns="http://www.w3.org/2000/svg" xml:space="preserve" width="210mm" height="297mm" version="1.1" style="shape-rendering:geometricPrecision; text-rendering:geometricPrecision; image-rendering:optimizeQuality; fill-rule:evenodd; clip-rule:evenodd"
viewBox="0 0 21000 29700"
 xmlns:xlink="http://www.w3.org/1999/xlink"
 xmlns:xodm="http://www.corel.com/coreldraw/odm/2003">
 <defs>
  <style type="text/css">
   <![CDATA[
    .fil2 {fill:#E97325;fill-opacity:0.945098}
    .fil1 {fill:#E97325;fill-opacity:0.972549}
    .fil0 {fill:#E97325;fill-opacity:0.976471}
   ]]>
  </style>
 </defs>
 <g id="Layer_x0020_1">
  <metadata id="CorelCorpID_0Corel-Layer"/>
  <g id="_1556249129696">
   <g>
    <path class="fil0" d="M5366.42 8909.18c201.18,-19.28 262.85,62.96 185.01,246.69 -117.48,117.46 -234.93,234.92 -352.4,352.39 22.22,80.49 45.7,162.72 70.48,246.68 39.75,230.51 -16.06,433.14 -167.39,607.89 80.72,60.58 107.14,139.87 79.28,237.87 -46.93,62.25 -108.61,82.81 -185,61.67 -390.09,-372.45 -774.78,-751.28 -1154.11,-1136.49 -45.78,-195 27.64,-262.55 220.25,-202.63 20.56,20.57 41.11,41.11 61.67,61.67 198.77,-166.65 424.91,-216.57 678.37,-149.77 62.76,13.02 118.54,39.45 167.38,79.29 135.72,-132.76 267.86,-267.86 396.46,-405.26z"/>
   </g>
   <g>
    <path class="fil1" d="M3815.86 9984c163.48,-19.8 225.15,50.67 185.01,211.44 -96.35,113.99 -199.12,222.65 -308.35,325.97 -23.48,11.75 -46.99,11.75 -70.48,0 -49.92,-49.92 -99.85,-99.85 -149.77,-149.77 -11.75,-17.62 -11.75,-35.24 0,-52.86 112.68,-115.64 227.21,-227.25 343.59,-334.78z"/>
   </g>
   <g>
    <path class="fil0" d="M3058.2 10142.58c49.69,-4.44 96.66,4.37 140.96,26.43 372.96,372.96 745.91,745.9 1118.87,1118.86 56.35,172.07 -5.33,245.49 -185.01,220.25 -37.42,-19.76 -69.72,-46.19 -96.91,-79.28 -256.37,199.63 -532.4,229 -828.14,88.09 -131.39,113.76 -257.67,234.16 -378.82,361.22 -186.62,77.73 -265.91,16.07 -237.88,-185.01 132.16,-132.15 264.3,-264.3 396.45,-396.46 -107.14,-184.93 -133.57,-381.69 -79.29,-590.26 35.31,-93.97 85.23,-179.13 149.77,-255.49 -116.15,-107.11 -116.15,-209.89 0,-308.35z"/>
   </g>
   <g>
    <path class="fil2" d="M4291.6 10477.36c173.2,-29.44 240.74,41.03 202.63,211.44 -112.35,118.24 -229.82,229.85 -352.4,334.78 -73.42,-49.92 -135.09,-111.59 -185.01,-185.01 108.52,-123.2 220.11,-243.6 334.78,-361.21z"/>
   </g>
  </g>
 </g>
</svg>
